# xmcd CD database file
#
# Track frame offsets:
#	151
#	19329
#	35834
#	49943
#	75956
#	95379
#	107072
#
# Disc length: 1649 seconds
#
# Revision: 0
# Processed by: cddbd v1.5.2PL0 Copyright (c) Steve Scherf et al.
# Submitted via: Feurio! 1.68 - http://www.feurio.com
#
DISCID=50066f07
DTITLE=Biscuits and Blues - In Blues We Trust
DYEAR=1999
DGENRE=
TTITLE0=Storming My Brain
TTITLE1=Reconsider Baby
TTITLE2=It Hurts Me, Too
TTITLE3=Help Me Jesus
TTITLE4=Bring It On Home To Me
TTITLE5=My Life Is A Boogie
TTITLE6=David Blows The Harp
EXTD=
EXTT0=
EXTT1=
EXTT2=
EXTT3=
EXTT4=
EXTT5=
EXTT6=
PLAYORDER=
